<?xml version="1.0" encoding="UTF-8"?>
<svg width="32" height="32" viewBox="0 0 32 32" fill="none" xmlns="http://www.w3.org/2000/svg">
  <!-- Gradient definitions -->
  <defs>
    <linearGradient id="bgGradient" x1="0%" y1="0%" x2="100%" y2="100%">
      <stop offset="0%" stop-color="#1E3A8A" />
      <stop offset="100%" stop-color="#1E40AF" />
    </linearGradient>
    <linearGradient id="circleGradient" x1="0%" y1="0%" x2="100%" y2="100%">
      <stop offset="0%" stop-color="#60A5FA" />
      <stop offset="100%" stop-color="#3B82F6" />
    </linearGradient>
  </defs>
  
  <!-- Background -->
  <rect width="32" height="32" rx="8" fill="url(#bgGradient)" />
  
  <!-- Main hexagon shape (representing tech/digital) -->
  <path d="M16 4L27.7128 11V25L16 32L4.28718 25V11L16 4Z" stroke="#FFFFFF" stroke-opacity="0.2" stroke-width="0.5" fill="none" />
  
  <!-- Inner O for Orvix -->
  <circle cx="16" cy="16" r="8" fill="none" stroke="url(#circleGradient)" stroke-width="2" />
  
  <!-- Small circles representing 360 and connectivity -->
  <circle cx="16" cy="8" r="1.5" fill="#FFFFFF" />
  <circle cx="22.9282" cy="12" r="1.5" fill="#FFFFFF" />
  <circle cx="22.9282" cy="20" r="1.5" fill="#FFFFFF" />
  <circle cx="16" cy="24" r="1.5" fill="#FFFFFF" />
  <circle cx="9.0718" cy="20" r="1.5" fill="#FFFFFF" />
  <circle cx="9.0718" cy="12" r="1.5" fill="#FFFFFF" />
  
  <!-- Connection lines for tech feeling -->
  <line x1="16" y1="8" x2="9.0718" y2="12" stroke="#FFFFFF" stroke-opacity="0.5" stroke-width="0.5" />
  <line x1="16" y1="8" x2="22.9282" y2="12" stroke="#FFFFFF" stroke-opacity="0.5" stroke-width="0.5" />
  <line x1="22.9282" y1="12" x2="22.9282" y2="20" stroke="#FFFFFF" stroke-opacity="0.5" stroke-width="0.5" />
  <line x1="22.9282" y1="20" x2="16" y2="24" stroke="#FFFFFF" stroke-opacity="0.5" stroke-width="0.5" />
  <line x1="16" y1="24" x2="9.0718" y2="20" stroke="#FFFFFF" stroke-opacity="0.5" stroke-width="0.5" />
  <line x1="9.0718" y1="20" x2="9.0718" y2="12" stroke="#FFFFFF" stroke-opacity="0.5" stroke-width="0.5" />
  
  <!-- Central small circle -->
  <circle cx="16" cy="16" r="2" fill="#FFFFFF" />
</svg> 