<?xml version="1.0" encoding="UTF-8"?>
<svg width="32" height="32" viewBox="0 0 32 32" fill="none" xmlns="http://www.w3.org/2000/svg">
  <!-- Gradient definitions -->
  <defs>
    <linearGradient id="primaryGradient" x1="0%" y1="0%" x2="100%" y2="100%">
      <stop offset="0%" stop-color="#4299E1" />
      <stop offset="100%" stop-color="#2B6CB0" />
    </linearGradient>
    <linearGradient id="secondaryGradient" x1="100%" y1="0%" x2="0%" y2="100%">
      <stop offset="0%" stop-color="#63B3ED" />
      <stop offset="100%" stop-color="#3182CE" />
    </linearGradient>
  </defs>
  
  <!-- Background -->
  <rect width="32" height="32" rx="6" fill="white" />
  
  <!-- Main "O" shape -->
  <path d="M16 4C9.373 4 4 9.373 4 16C4 22.627 9.373 28 16 28C22.627 28 28 22.627 28 16C28 9.373 22.627 4 16 4ZM16 24C11.582 24 8 20.418 8 16C8 11.582 11.582 8 16 8C20.418 8 24 11.582 24 16C24 20.418 20.418 24 16 24Z" fill="url(#primaryGradient)" />
  
  <!-- Inner arc to represent "360" - creates a partial circle/arc -->
  <path d="M16 10C12.686 10 10 12.686 10 16C10 19.314 12.686 22 16 22C19.314 22 22 19.314 22 16" stroke="url(#secondaryGradient)" stroke-width="2.5" stroke-linecap="round" />
  
  <!-- Small dot to complete the "360" concept -->
  <circle cx="22" cy="16" r="2" fill="url(#secondaryGradient)" />
</svg> 